<mxfile host="app.diagrams.net" modified="2024-02-14T12:04:13.855Z" agent="Mozilla/5.0 (Macintosh; Intel Mac OS X 10_15_7) AppleWebKit/537.36 (KHTML, like Gecko) Chrome/121.0.0.0 Safari/537.36" version="23.1.4" etag="UzamQ5Y6vi2aKQLe5STk" type="github">
  <diagram name="페이지-1" id="WFNwoxsl-0hVOxKtP3ND">
    <mxGraphModel>
      <root>
        <mxCell id="0" />
        <mxCell id="1" parent="0" />
      </root>
    </mxGraphModel>
  </diagram>
</mxfile>
